<svg id="Capa_1" data-name="Capa 1" xmlns="http://www.w3.org/2000/svg" viewBox="0 0 315.19 489"><defs><style>.cls-1{fill:#633a1e;}.cls-2{fill:#a56032;}.cls-3,.cls-7{fill:none;}.cls-3{stroke:#eae0db;stroke-linecap:round;stroke-miterlimit:10;stroke-width:14.88px;}.cls-4{fill:#eae0db;}.cls-5{fill:#c7bdb8;}.cls-6{fill:#854d29;}.cls-8{fill:#c4c1c0;}.cls-9{fill:#d8d1ce;}.cls-10{fill:#ddd4d0;}.cls-11{fill:#f8f9fa;}.cls-11,.cls-12{fill-rule:evenodd;}.cls-12{fill:#4a4149;}</style></defs><title>ahorcado</title><rect class="cls-1" x="70.56" y="-8.05" width="43.89" height="204.36" rx="9.64" transform="translate(91.36 226.11) rotate(-135)"/><rect class="cls-2" y="0.39" width="43.89" height="488.61" rx="9.64"/><path class="cls-2" d="M6.93,466.4h113.3a11.3,11.3,0,0,1,11.3,11.3v0a11.3,11.3,0,0,1-11.3,11.3H6.93a0,0,0,0,1,0,0V466.4A0,0,0,0,1,6.93,466.4Z"/><path class="cls-3" d="M283.91,61.28c-5.27,4-10.1,9.53-14.58,16.37"/><rect class="cls-4" x="260.06" y="20.55" width="17.01" height="57.77"/><rect class="cls-5" x="268.39" y="20.55" width="8.69" height="57.77"/><rect class="cls-6" width="308.91" height="44.55" rx="11.87"/><path class="cls-7" d="M256.54,150.22c.62,2.3,2.14,5.62,8.06,7.86a11.38,11.38,0,0,0,4.14.74V115.36C262.16,125.16,253.9,140.52,256.54,150.22Z"/><path class="cls-7" d="M273.41,157.83c5-2.16,7.87-5.22,8.81-9.35,2.32-10.1-6.31-25-12.86-34l-.62.91v43.46A11.8,11.8,0,0,0,273.41,157.83Z"/><path class="cls-8" d="M285,117.63a119.36,119.36,0,0,0-11.47-16.33l-4.46-5.17-.33.41v18.82l.62-.91c6.55,9.07,15.18,23.93,12.86,34-.94,4.13-3.83,7.19-8.81,9.35a11.8,11.8,0,0,1-4.67,1v11.41a23.16,23.16,0,0,0,9.2-1.94c10.51-4.55,14.17-11.91,15.4-17.28C295.41,141.94,292.61,130.71,285,117.63Z"/><path class="cls-9" d="M264.6,158.08c-5.92-2.24-7.44-5.56-8.06-7.86-2.64-9.7,5.62-25.06,12.2-34.86V96.54l-4,4.91c-2.55,3.17-24.75,31.49-19.25,51.76,1.36,5,5.07,11.76,15,15.54a22.9,22.9,0,0,0,8.11,1.48h.07V158.82A11.38,11.38,0,0,1,264.6,158.08Z"/><path class="cls-4" d="M258.8,95.33a8.51,8.51,0,1,0,0,17h9.77v-17Z"/><path class="cls-10" d="M278,95.33h-9.41v17H278a8.51,8.51,0,0,0,0-17Z"/><path class="cls-4" d="M258.8,78.32a8.51,8.51,0,0,0-8.51,8.51h0a8.51,8.51,0,0,0,8.51,8.5h9.77v-17Z"/><path class="cls-10" d="M278,78.32h-9.41v17H278a8.5,8.5,0,0,0,8.5-8.5h0A8.5,8.5,0,0,0,278,78.32Z"/><g id="SKULL"><path class="cls-11" d="M276.33,153.07s-.39-1.45-.43-1.51-.33-.5-.43-.45-1.43.17-1.53.19-1.21,0-1.68.09-1.53,0-2.09,0-1.6-.06-2-.09-1.05-.17-1.42-.15a12.92,12.92,0,0,0-1.4-.1,1.47,1.47,0,0,0-.8.56c-.1.25-.3.9-.58,1s-.73-.48-1,.06-.43.76-.28,1,0,.56.6.58.8-.17,1.36-.07l1.53.31a6.33,6.33,0,0,0,1.33.21c.52,0,.41,0,1.12,0s1.06,0,1.68,0,1,0,1.57,0a9.63,9.63,0,0,0,1.58,0,8.47,8.47,0,0,0,1.12-.15c.82-.15,1.16-.15,1.4-.35a2.52,2.52,0,0,0,.45-.58Z"/><path class="cls-11" d="M256.66,132.91c.17,1.9.62,3.8-.19,5.84a7.37,7.37,0,0,1-1.24-3.48,20.2,20.2,0,0,1,.05-7.71,10.91,10.91,0,0,1,4.73-6.74A17,17,0,0,1,271.09,118a22.72,22.72,0,0,1,6.3,1.1,9.61,9.61,0,0,1,4.47,3.2c3.25,4.28,4.28,9.49,1.18,14.58-1.3-1.06-2.66-2-3.15-3.81-.34.84.17,1.37.51,1.94s.84,1.33,1.26,2a4,4,0,0,1,.58,3.37,4.23,4.23,0,0,0,.14,2.17,5.49,5.49,0,0,1-.22,3.16,2.52,2.52,0,0,1-4.09,1.1,2.31,2.31,0,0,0-2.07-.73l1.14.92c-.19.59-.76.43-.95.8.34.49,1,.39,1.42.69-.35,1-.66,1.93-1,2.87s-.53.26-.22-.56c-.29-.46-.68-.29-1.06-.2-2.49.6-5,.43-7.56.6a6.58,6.58,0,0,1-1.65-.35c-.83-.18-1.65-.36-2.09.7a.44.44,0,0,1-.67.26.53.53,0,0,1-.13-.62c.13-.43.28-.86.42-1.29.51-1.6.32-2.22-1.09-3.42.53-.63,1.4-.9,1.77-1.68.09-.2.27-.36.09-.59a.38.38,0,0,0-.59,0,7.94,7.94,0,0,0-1.29,1.08,5.67,5.67,0,0,1-2.42,1.76c-1,.41-1.66.25-2.15-.69a1.89,1.89,0,0,1-.23-.8c-.12-2.24-.66-4.44-.54-6.7a3.29,3.29,0,0,1,.21-.95A5.82,5.82,0,0,0,256.66,132.91Zm5.79,9.39a5.53,5.53,0,0,0,4.4-2.91,3.79,3.79,0,0,0-1.27-4.64c-1.52-.94-2.88-.9-4.41.56a16.17,16.17,0,0,0-1.3,1.32,3.63,3.63,0,0,0-.46,4C260,142,261.35,142.11,262.45,142.3Zm4.76,2.19v.37a2.27,2.27,0,0,0,1,2,1.3,1.3,0,0,0,1.83-.07c.17-.18.39-.08.61,0,.88.45,1.26-.33,1.23-.82A7.7,7.7,0,0,0,271,142a1.64,1.64,0,0,0-3,0A4.59,4.59,0,0,0,267.21,144.49Z"/><path class="cls-11" d="M260.4,154.48a43.87,43.87,0,0,0,.12-4.87c0-.3,0-.57.38-.64a.76.76,0,0,1,.87.35,2.86,2.86,0,0,1,.32,1.47c0,.84.12,1.69.08,2.53a1.14,1.14,0,0,0,1.16,1.34,38.08,38.08,0,0,0,4.52.49,37.74,37.74,0,0,1,4.38.18,13.36,13.36,0,0,0,3.33-.45,1.57,1.57,0,0,0,1.35-1.29c.28-1,.62-2,1-3,.15-.38.31-1,.92-.75a1,1,0,0,1,.67,1.07c0,.62-.17,1.24-.15,1.85a7.23,7.23,0,0,1-3.36,6.59c-.83.57-1.58,1.27-2.38,1.89a2.34,2.34,0,0,1-2.83.27,2.82,2.82,0,0,0-3-.16,1.49,1.49,0,0,1-1.86-.26,27,27,0,0,0-4-3C260.49,157.15,260.3,155.9,260.4,154.48Z"/><path class="cls-12" d="M262.45,142.3c-1.1-.19-2.44-.27-3-1.72a3.63,3.63,0,0,1,.46-4,16.17,16.17,0,0,1,1.3-1.32c1.53-1.46,2.89-1.5,4.41-.56a3.79,3.79,0,0,1,1.27,4.64A5.53,5.53,0,0,1,262.45,142.3Z"/><path class="cls-12" d="M275.08,134.69a4.66,4.66,0,0,1,4.93,4c.29,1.61-1.32,2.93-2.71,3.37a3.68,3.68,0,0,1-4.53-1.16,3.79,3.79,0,0,1-.78-4.16A3.14,3.14,0,0,1,275.08,134.69Z"/><path class="cls-12" d="M267.21,144.49a4.59,4.59,0,0,1,.86-2.48,1.64,1.64,0,0,1,3,0,7.7,7.7,0,0,1,.83,4.06c0,.49-.35,1.27-1.23.82-.22-.11-.44-.21-.61,0a1.3,1.3,0,0,1-1.83.07,2.27,2.27,0,0,1-1-2Z"/><path class="cls-12" d="M263.11,160.58l.36.23.33.23.25.16.2.13.19.13.22.16s.65.34.67.3c1.1.56,1.52.42,2.77,0a2.37,2.37,0,0,1,1.56,0c1.19.43,2.15,1,3.36.51.34-.13.91-.58,1.29-.71,1.18-.85,1.73-1,2.9-1.88.45-.34.63-1,1.16-1.21.1-.08.25-.13.31-.24.91-1.58,1.4-1.4,1.72-3.34.28-1.67.51-3.33.81-5,.07-.38.17-1.19.54-1.48,1.93-1.52,2.1-3.85,1.76-6.08a7.74,7.74,0,0,1,.67-4.73,19.41,19.41,0,0,0,2.26-7.79c.05-2.76-1.43-5.44-2.93-7.74a11.12,11.12,0,0,0-5.81-4.46c-5.92-2-10.26-1.57-15.94.81-3.95,1.66-7,4.69-7.7,9s-.93,8.38,1,12.29a14,14,0,0,1,1.61,5.63,3.74,3.74,0,0,0,.83,2.7c1.34,1.22,1.38,2.76,1.3,4.35a21.86,21.86,0,0,0,.23,3.88,2.8,2.8,0,0,0,1.25,2.1c.93.63,1.82,1.31,2.75,1.95Zm-3-13.58c-1,.41-1.66.25-2.15-.69a1.89,1.89,0,0,1-.23-.8c-.12-2.24-.66-4.44-.54-6.7a3.29,3.29,0,0,1,.21-.95,5.82,5.82,0,0,0-.72-5c.17,1.9.62,3.8-.19,5.84a7.37,7.37,0,0,1-1.24-3.48,20.2,20.2,0,0,1,.05-7.71,10.91,10.91,0,0,1,4.73-6.74A17,17,0,0,1,271.09,118a22.72,22.72,0,0,1,6.3,1.1,9.61,9.61,0,0,1,4.47,3.2c3.25,4.28,4.28,9.49,1.18,14.58-1.3-1.06-2.66-2-3.15-3.81-.34.84.17,1.37.51,1.94s.84,1.33,1.26,2a4,4,0,0,1,.58,3.37,4.23,4.23,0,0,0,.14,2.17,5.49,5.49,0,0,1-.22,3.16,2.52,2.52,0,0,1-4.09,1.1,2.31,2.31,0,0,0-2.07-.73l1.14.92c-.19.59-.76.43-.95.8.34.49,1,.39,1.42.69-.35,1-.66,1.93-1,2.87s-.53.26-.22-.56c-.29-.46-.68-.29-1.06-.2-2.49.6-4.77.34-7.3.51a8.51,8.51,0,0,1-1.91-.26c-.83-.18-1.65-.36-2.09.7a.44.44,0,0,1-.67.26.53.53,0,0,1-.13-.62,5.12,5.12,0,0,0,.42-1.29c0-1.72-.11-1.31-1.09-3.42.53-.63,1.4-.9,1.77-1.68.09-.2.27-.36.09-.59a.38.38,0,0,0-.59,0,7.94,7.94,0,0,0-1.29,1.08A5.67,5.67,0,0,1,260.09,147Zm15.7,6.54c.06.3-.47.64-.63.67-.35.07-.87-.16-.84-.47s.61-.56.67-.57C275.66,153.11,275.77,153.33,275.79,153.54Zm-3-.58a.84.84,0,0,1-.69-1c.05-.22.41-.24.77-.21s.93-.08,1,.57A.87.87,0,0,1,272.82,153Zm.86,1.08a.91.91,0,0,1-1,.49c-.28,0-.84-.21-.65-.75.1-.27.82-.4,1-.35S273.72,153.72,273.68,154ZM271.09,153a1,1,0,0,1-1.31-.46c-.32-.55.06-.69.5-.73s1-.1,1.28.48C271.64,152.65,271.37,152.83,271.09,153Zm.26.89c0,1-.73.7-.92.69s-.72.07-.69-.71c0-.27.61-.35.84-.34S271.3,153.56,271.35,153.84Zm-3.16-.8c-.42,0-.81-.22-.86-.7-.09-.8.62-.74.93-.71.66,0,1-.06.91.57A.83.83,0,0,1,268.19,153Zm.3,1.43c-.26,0-.93.15-1.25-.07a.87.87,0,0,1,.3-.82.82.82,0,0,1,.58-.15c.14,0,.73.33.67.5S268.9,154.45,268.49,154.47Zm-2.76-1.88a.57.57,0,0,1-.48-.69c.09-.37.29-.58.69-.47s.64.22.63.56A.85.85,0,0,1,265.73,152.59Zm.43,1.19c-.3.36-.67.26-1,.24s-.78-.2-.6-.7a1,1,0,0,1,1-.49C266.07,152.94,266.14,153.49,266.16,153.78Zm-2.39,0c0,.23-.16.26-.33.29-.42-.05-.28-.37-.27-.62s0-.38.21-.32S263.75,153.48,263.77,153.77Zm-3.37.71a43.87,43.87,0,0,0,.12-4.87c0-.3,0-.57.38-.64a.76.76,0,0,1,.87.35,2.86,2.86,0,0,1,.32,1.47c0,.84.12,1.69.08,2.53a1.14,1.14,0,0,0,1.16,1.34,38.08,38.08,0,0,0,4.52.49,37.74,37.74,0,0,1,4.38.18,13.36,13.36,0,0,0,3.33-.45,1.57,1.57,0,0,0,1.35-1.29c.28-1,.62-2,1-3,.15-.38.31-1,.92-.75a1,1,0,0,1,.67,1.07c0,.62-.17,1.24-.15,1.85a7.23,7.23,0,0,1-3.36,6.59c-.83.57-1.58,1.27-2.38,1.89a2.34,2.34,0,0,1-2.83.27,2.82,2.82,0,0,0-3-.16,1.49,1.49,0,0,1-1.86-.26,27,27,0,0,0-4-3C260.49,157.15,260.3,155.9,260.4,154.48Z"/><path class="cls-11" d="M275.73,152a.57.57,0,0,1-.33.65.69.69,0,0,1-1-.26.47.47,0,0,1,.34-.76C275.14,151.62,275.54,151.59,275.73,152Z"/></g></svg>