<svg id="Capa_1" data-name="Capa 1" xmlns="http://www.w3.org/2000/svg" viewBox="0 0 308.91 489"><defs><style>.cls-1{fill:#633a1e;}.cls-2{fill:#a56032;}.cls-3,.cls-7{fill:none;}.cls-3{stroke:#eae0db;stroke-linecap:round;stroke-miterlimit:10;stroke-width:14.88px;}.cls-4{fill:#eae0db;}.cls-5{fill:#c7bdb8;}.cls-6{fill:#854d29;}.cls-8{fill:#c4c1c0;}.cls-9{fill:#d8d1ce;}.cls-10{fill:#ddd4d0;}.cls-11{font-size:75.03px;font-family:MyriadPro-Regular, Myriad Pro;}</style></defs><title>ahorcado</title><rect class="cls-1" x="70.56" y="-8.05" width="43.89" height="204.36" rx="9.64" transform="translate(91.36 226.11) rotate(-135)"/><rect class="cls-2" y="0.39" width="43.89" height="488.61" rx="9.64"/><path class="cls-2" d="M6.93,466.4h113.3a11.3,11.3,0,0,1,11.3,11.3v0a11.3,11.3,0,0,1-11.3,11.3H6.93a0,0,0,0,1,0,0V466.4a0,0,0,0,1,0,0Z"/><path class="cls-3" d="M283.91,61.28c-5.27,4-10.1,9.53-14.58,16.37"/><rect class="cls-4" x="260.06" y="20.55" width="17.01" height="57.77"/><rect class="cls-5" x="268.39" y="20.55" width="8.69" height="57.77"/><rect class="cls-6" width="308.91" height="44.55" rx="11.87"/><path class="cls-7" d="M256.54,150.22c.62,2.3,2.14,5.62,8.06,7.86a11.38,11.38,0,0,0,4.14.74V115.36C262.16,125.16,253.9,140.52,256.54,150.22Z"/><path class="cls-7" d="M273.41,157.83c5-2.16,7.87-5.22,8.81-9.35,2.32-10.1-6.31-25-12.86-34l-.62.91v43.46A11.8,11.8,0,0,0,273.41,157.83Z"/><path class="cls-8" d="M285,117.63a119.36,119.36,0,0,0-11.47-16.33l-4.46-5.17-.33.41v18.82l.62-.91c6.55,9.07,15.18,23.93,12.86,34-.94,4.13-3.83,7.19-8.81,9.35a11.8,11.8,0,0,1-4.67,1v11.41a23.16,23.16,0,0,0,9.2-1.94c10.51-4.55,14.17-11.91,15.4-17.28C295.41,141.94,292.61,130.71,285,117.63Z"/><path class="cls-9" d="M264.6,158.08c-5.92-2.24-7.44-5.56-8.06-7.86-2.64-9.7,5.62-25.06,12.2-34.86V96.54l-4,4.91c-2.55,3.17-24.75,31.49-19.25,51.76,1.36,5,5.07,11.76,15,15.54a22.9,22.9,0,0,0,8.11,1.48h.07V158.82A11.38,11.38,0,0,1,264.6,158.08Z"/><path class="cls-4" d="M258.8,95.33a8.51,8.51,0,1,0,0,17h9.77v-17Z"/><path class="cls-10" d="M278,95.33h-9.41v17H278a8.51,8.51,0,0,0,0-17Z"/><path class="cls-4" d="M258.8,78.32a8.51,8.51,0,0,0-8.51,8.51h0a8.51,8.51,0,0,0,8.51,8.5h9.77v-17Z"/><path class="cls-10" d="M278,78.32h-9.41v17H278a8.5,8.5,0,0,0,8.5-8.5h0A8.5,8.5,0,0,0,278,78.32Z"/><text class="cls-11" transform="translate(139.36 290.65)">3</text></svg>